<?xml version="1.0" encoding="UTF-8"?>
<svg id="Layer_1" data-name="Layer 1" xmlns="http://www.w3.org/2000/svg" viewBox="0 0 400.98 233.66">
  <defs>
    <style>
      .cls-1 {
        fill: #900000;
      }

      .cls-2 {
        fill: none;
      }
    </style>
  </defs>
  <path class="cls-1" d="M127.43,211.72c-1.36,7.18-9.24,15.13-15.64,18.36-29.75,15.01-58.14-20.55-38.35-45.35,3.91-4.91,10.78-5.31,8.93-11.93-14.94-43.67-24.62-90.14-39.22-133.78-1.12-3.33-1.5-7.7-5.43-8.57C25,27.65-4.03,38.1.47,14.75,2.36,4.97,28.32,6.69,35.99,7.19c24.27,1.57,27.66,13.93,33.03,35.1l144.97-.1c11.37,1.36,20.03,8.9,21.45,20.55,1.49,12.24.31,23.13.02,35-.49,20.08,2.21,40.5-15,55-3.64,3.07-16.2,9.49-20.51,9.49h-95.5l3.2,11.8c1.79.27,3.63.87,5.43,1.07,23.35,2.56,77.08-5.14,94.9,4.1,20.92,10.85,17.27,43.08-3.52,51.53-22.75,9.25-45.47-9.71-40.01-33.51h-37c-.56,4.37.78,10.4,0,14.5h-.02ZM78.43,69.22l3.98,13.52c5.15.17,10.37,1.29,15.47,1.53,13.75.64,34.64,1.2,48.01,0,5.76-.52,10.87-1.46,10.6-8.52-.12-3.02-2.52-6.53-5.56-6.53h-72.5ZM203.09,76.62c-3.34-2-7.04-2.44-10.65-.91-11.09,4.7-17.23,34.35-21.75,45.18,2.37,14.21,29.85,12.71,34.19,1.27,2.47-6.51,2.14-28.74,1.6-36.47-.21-3.01-.67-7.44-3.38-9.07h-.01ZM88.43,106.22l4.64,13.86c11.15-.6,23.99,1.26,34.92.2,10.93-1.06,6.69-14.06,3.94-14.06h-43.5ZM95.15,194.43c-13.55,3.06-3.84,25.03,7.79,16.79,9.15-6.48,3.03-19.23-7.79-16.79ZM189.15,194.43c-7.19,1.62-9.06,11.46-2.65,16.23,15.13,11.27,22.09-20.6,2.65-16.23Z"/>
  <path class="cls-1" d="M299.2,1.46c.79,1.98,1.1,4.1,1.27,6.23,2.74,33.53-3.22,71.75-.02,105.02,1.05,10.93,8.52,18.98,19.57,20.43,43.73,5.77,27-40.89,30.37-66.46.44-3.31,1.23-4.07,4.5-4.5,7.51-.99,33.59-1,41.09,0,2.04.27,3.5.57,4.25,2.75-.84,17.96,1.81,38.14.24,55.84-1.82,20.64-14.04,38-33.35,45.65-32.34,12.82-98.86,10.89-102.73-34.66l.24-128.83c.26-.89.96-1.8,1.79-2.21,2.48-1.21,31.18-.85,32.77.74h.01Z"/>
  <path class="cls-1" d="M319.87,193.63c10.13-12.47,28.95-9.69,36.59,4.06,11.87,21.36-16.01,43.32-34.53,26.53-8.46-7.67-9.14-21.88-2.06-30.59Z"/>
  <path class="cls-2" d="M203.09,76.62c2.72,1.62,3.17,6.06,3.38,9.07.55,7.73.87,29.97-1.6,36.47-4.33,11.44-31.82,12.94-34.19-1.27,4.53-10.83,10.66-40.47,21.75-45.18,3.61-1.53,7.3-1.09,10.65.91h.01Z"/>
  <path class="cls-2" d="M78.43,69.22h72.5c3.04,0,5.45,3.51,5.56,6.53.27,7.06-4.84,8-10.6,8.52-13.37,1.2-34.27.64-48.01,0-5.1-.24-10.32-1.36-15.47-1.53,0,0-3.98-13.52-3.98-13.52Z"/>
  <path class="cls-2" d="M88.43,106.22h43.5c2.75,0,7.2,12.98-3.94,14.06s-23.77-.8-34.92-.2l-4.64-13.86Z"/>
  <path class="cls-2" d="M95.15,194.43c10.82-2.44,16.94,10.31,7.79,16.79-11.63,8.24-21.34-13.73-7.79-16.79Z"/>
  <path class="cls-2" d="M189.15,194.43c19.44-4.37,12.48,27.5-2.65,16.23-6.41-4.77-4.54-14.61,2.65-16.23Z"/>
</svg>